<svg xmlns="http://www.w3.org/2000/svg" xmlns:xlink="http://www.w3.org/1999/xlink" version="1.1" x="0px" y="0px" viewBox="0 0 200 250" enable-background="new 0 0 200 200" xml:space="preserve"><g><g><path fill="#000000" d="M200,183.644H0V40.487h200V183.644z M6.95,176.694h186.101V47.438H6.95V176.694z"/><path fill="#000000" d="M200,47.438H0V16.356h200V47.438z M6.95,40.487h186.101V23.306H6.95V40.487z"/><g><rect x="47.234" y="28.422" fill="#000000" width="7.722" height="6.95"/><rect x="31.791" y="28.422" fill="#000000" width="7.722" height="6.95"/><rect x="16.346" y="28.422" fill="#000000" width="7.722" height="6.95"/></g></g><g><rect x="103.478" y="120.966" fill="#000000" width="6.95" height="7.722"/><rect x="103.478" y="136.41" fill="#000000" width="6.95" height="7.722"/><rect x="103.478" y="151.854" fill="#000000" width="6.95" height="7.723"/></g><g><g><polygon fill="#000000" points="84.17,180.169 77.221,180.169 77.221,103.806 68.727,103.806 68.727,180.169 61.776,180.169      61.776,96.855 84.17,96.855    "/><path fill="#000000" d="M106.563,103.806H34.75V86.044h3.475c4.045,0,7.336-3.291,7.336-7.336v-3.475h61.003V103.806z      M41.699,96.855h57.916V82.184H52.082c-1.276,5.09-5.292,9.106-10.382,10.384V96.855z"/></g><path fill="#000000" d="M151.352,180.169h-6.95v-65.042l2.232-0.854c6.977-2.671,11.667-9.477,11.667-16.932    c0-5.566-2.611-10.83-6.949-14.243v16.174h-22.395V83.098c-4.337,3.413-6.949,8.677-6.949,14.243    c0,7.455,4.688,14.261,11.667,16.932l2.232,0.854v65.042h-6.95V119.78c-8.403-4.21-13.899-12.942-13.899-22.439    c0-8.849,4.76-17.136,12.425-21.63l0.814-0.477h7.61v17.088h8.494V75.234h7.61l0.814,0.477    c7.665,4.494,12.425,12.782,12.425,21.63c0,9.499-5.496,18.231-13.899,22.439V180.169z"/></g></g><text x="0" y="215" fill="#000000" font-size="5px" font-weight="bold" font-family="'Helvetica Neue', Helvetica, Arial-Unicode, Arial, Sans-serif">Created by Maxim Basinski</text><text x="0" y="220" fill="#000000" font-size="5px" font-weight="bold" font-family="'Helvetica Neue', Helvetica, Arial-Unicode, Arial, Sans-serif">from the Noun Project</text></svg>