<svg xmlns="http://www.w3.org/2000/svg" data-name="Layer 1" viewBox="0 0 100 125" x="0px" y="0px"><title>Artboard 23</title><path d="M54.58,50A4.58,4.58,0,1,1,50,45.42,4.59,4.59,0,0,1,54.58,50Zm10.37,4a15.36,15.36,0,0,1-1.53,3.7l1.73,2.47a2.28,2.28,0,0,1-.25,2.92l-1.78,1.78a2.28,2.28,0,0,1-2.92.25l-2.47-1.73A15.39,15.39,0,0,1,54,64.95l-.52,3a2.28,2.28,0,0,1-2.25,1.89H48.74a2.28,2.28,0,0,1-2.25-1.89l-.52-3a15.4,15.4,0,0,1-3.7-1.53l-2.47,1.73a2.28,2.28,0,0,1-2.92-.25l-1.78-1.78a2.28,2.28,0,0,1-.25-2.92l1.73-2.47A15.37,15.37,0,0,1,35.05,54l-3-.52a2.28,2.28,0,0,1-1.89-2.25V48.74a2.28,2.28,0,0,1,1.89-2.25l3-.52a15.35,15.35,0,0,1,1.53-3.69l-1.73-2.47a2.28,2.28,0,0,1,.25-2.92l1.78-1.78a2.28,2.28,0,0,1,2.92-.25l2.47,1.73A15.4,15.4,0,0,1,46,35.05l.52-3a2.28,2.28,0,0,1,2.25-1.89h2.52a2.28,2.28,0,0,1,2.25,1.89l.52,3a15.39,15.39,0,0,1,3.69,1.53l2.47-1.73a2.28,2.28,0,0,1,2.92.25l1.78,1.78a2.28,2.28,0,0,1,.25,2.92l-1.73,2.47A15.34,15.34,0,0,1,64.95,46l3,.52a2.28,2.28,0,0,1,1.89,2.25v2.52a2.28,2.28,0,0,1-1.89,2.25Zm-6.22-4A8.73,8.73,0,1,0,50,58.73,8.74,8.74,0,0,0,58.73,50Zm39.7,21.61H92.64V65.39a6.92,6.92,0,0,1-3.86-2L87.44,62.1a6.49,6.49,0,0,1-6.82,1.13v8.38H60.86a1.94,1.94,0,0,0-1.94,1.94v1.28a2.06,2.06,0,0,1-2.06,2.06H43.14a2.06,2.06,0,0,1-2.06-2.06V73.55a1.94,1.94,0,0,0-1.94-1.94H19.38V25.34H80.62V35.78l12,5.1V21.64a8.33,8.33,0,0,0-8.32-8.32H15.69a8.33,8.33,0,0,0-8.33,8.32v50H1.58a1,1,0,0,0-1,1V77.6a9.09,9.09,0,0,0,9.08,9.08H90.39a9.09,9.09,0,0,0,9.08-9.08V72.66A1,1,0,0,0,98.42,71.61ZM93,46.46,76.93,39.65a1.6,1.6,0,0,0-.62-.13h0a1.59,1.59,0,0,0-1.45,2.21l6.82,16.07a1.56,1.56,0,0,0,2.54.49L87.45,55l4.86,4.86a2,2,0,1,0,2.8-2.8l-4.86-4.86L93.49,49A1.56,1.56,0,0,0,93,46.46Z"/><text x="0" y="115" fill="#000000" font-size="5px" font-weight="bold" font-family="'Helvetica Neue', Helvetica, Arial-Unicode, Arial, Sans-serif">Created by Gregor Cresnar</text><text x="0" y="120" fill="#000000" font-size="5px" font-weight="bold" font-family="'Helvetica Neue', Helvetica, Arial-Unicode, Arial, Sans-serif">from the Noun Project</text></svg>