<svg xmlns="http://www.w3.org/2000/svg" xmlns:xlink="http://www.w3.org/1999/xlink" version="1.1" x="0px" y="0px" viewBox="0 0 100 125" enable-background="new 0 0 100 100" xml:space="preserve"><g><path d="M95,26.091V5H25.552v20.551H5v21.092h20.552v3.086H5v21.092h20.552v3.087H5V95h69.449V74.449H95V53.357H74.449V50.27H95   V29.178H74.449v-3.087H95z M8.725,29.276h62v13.642h-62V29.276z M8.725,53.454h62v13.643h-62V53.454z M70.725,91.275h-62V77.633h62   V91.275z"/><rect x="32.003" y="32.872" width="6.451" height="6.451"/><rect x="22.327" y="32.872" width="6.451" height="6.451"/><rect x="12.65" y="32.872" width="6.451" height="6.451"/><rect x="32.003" y="57.051" width="6.451" height="6.451"/><rect x="22.327" y="57.051" width="6.451" height="6.451"/><rect x="12.65" y="57.051" width="6.451" height="6.451"/><rect x="32.003" y="81.229" width="6.451" height="6.451"/><rect x="22.327" y="81.229" width="6.451" height="6.451"/><rect x="12.65" y="81.229" width="6.451" height="6.451"/></g><text x="0" y="115" fill="#000000" font-size="5px" font-weight="bold" font-family="'Helvetica Neue', Helvetica, Arial-Unicode, Arial, Sans-serif">Created by Francesco Terzini</text><text x="0" y="120" fill="#000000" font-size="5px" font-weight="bold" font-family="'Helvetica Neue', Helvetica, Arial-Unicode, Arial, Sans-serif">from the Noun Project</text></svg>